<svg id="visual" viewBox="0 0 900 900" width="900" height="900" xmlns="http://www.w3.org/2000/svg" xmlns:xlink="http://www.w3.org/1999/xlink" version="1.1"><rect x="0" y="0" width="900" height="900" fill="#001220"></rect><path d="M0 546L21.5 565.8C43 585.7 86 625.3 128.8 631C171.7 636.7 214.3 608.3 257.2 594.5C300 580.7 343 581.3 385.8 572.8C428.7 564.3 471.3 546.7 514.2 543.3C557 540 600 551 642.8 572.3C685.7 593.7 728.3 625.3 771.2 619.5C814 613.7 857 570.3 878.5 548.7L900 527L900 901L878.5 901C857 901 814 901 771.2 901C728.3 901 685.7 901 642.8 901C600 901 557 901 514.2 901C471.3 901 428.7 901 385.8 901C343 901 300 901 257.2 901C214.3 901 171.7 901 128.8 901C86 901 43 901 21.5 901L0 901Z" fill="#19343a"></path><path d="M0 720L21.5 704.3C43 688.7 86 657.3 128.8 645.7C171.7 634 214.3 642 257.2 655.5C300 669 343 688 385.8 685.8C428.7 683.7 471.3 660.3 514.2 643C557 625.7 600 614.3 642.8 627C685.7 639.7 728.3 676.3 771.2 682.3C814 688.3 857 663.7 878.5 651.3L900 639L900 901L878.5 901C857 901 814 901 771.2 901C728.3 901 685.7 901 642.8 901C600 901 557 901 514.2 901C471.3 901 428.7 901 385.8 901C343 901 300 901 257.2 901C214.3 901 171.7 901 128.8 901C86 901 43 901 21.5 901L0 901Z" fill="#02465c"></path><path d="M0 695L21.5 702.5C43 710 86 725 128.8 726C171.7 727 214.3 714 257.2 700.3C300 686.7 343 672.3 385.8 680.2C428.7 688 471.3 718 514.2 732C557 746 600 744 642.8 743.7C685.7 743.3 728.3 744.7 771.2 747.5C814 750.3 857 754.7 878.5 756.8L900 759L900 901L878.5 901C857 901 814 901 771.2 901C728.3 901 685.7 901 642.8 901C600 901 557 901 514.2 901C471.3 901 428.7 901 385.8 901C343 901 300 901 257.2 901C214.3 901 171.7 901 128.8 901C86 901 43 901 21.5 901L0 901Z" fill="#005682"></path><path d="M0 814L21.5 813.7C43 813.3 86 812.7 128.8 800.2C171.7 787.7 214.3 763.3 257.2 751.5C300 739.7 343 740.3 385.8 744.3C428.7 748.3 471.3 755.7 514.2 756.2C557 756.7 600 750.3 642.8 745.2C685.7 740 728.3 736 771.2 743C814 750 857 768 878.5 777L900 786L900 901L878.5 901C857 901 814 901 771.2 901C728.3 901 685.7 901 642.8 901C600 901 557 901 514.2 901C471.3 901 428.7 901 385.8 901C343 901 300 901 257.2 901C214.3 901 171.7 901 128.8 901C86 901 43 901 21.5 901L0 901Z" fill="#3862a5"></path><path d="M0 851L21.5 840.5C43 830 86 809 128.8 801.7C171.7 794.3 214.3 800.7 257.2 810.5C300 820.3 343 833.7 385.8 840.2C428.7 846.7 471.3 846.3 514.2 836.7C557 827 600 808 642.8 805.2C685.7 802.3 728.3 815.7 771.2 819.5C814 823.3 857 817.7 878.5 814.8L900 812L900 901L878.5 901C857 901 814 901 771.2 901C728.3 901 685.7 901 642.8 901C600 901 557 901 514.2 901C471.3 901 428.7 901 385.8 901C343 901 300 901 257.2 901C214.3 901 171.7 901 128.8 901C86 901 43 901 21.5 901L0 901Z" fill="#7468c0"></path></svg>